# xmcd
#
# Track frame offsets:
#	150
#	21810
#	46355
#	65020
#	88120
#	128760
#	146977
#	170455
#	190022
#	204340
#	234475
#	251415
#	283487
#	305475
#
# Disc length: 4518 seconds
#
# Revision: 1
# Processed by: cddbd v1.5PL3 Copyright (c) Steve Scherf et al.
# Submitted via: audiograbber 1.83.01
#
DISCID=ce11a40e
DTITLE=The Nimmo Brothers - Moving On
DYEAR=1998
DGENRE=Blues
TTITLE0=Red Wine
TTITLE1=Wasn't Born To Lose
TTITLE2=Kingy's Swing
TTITLE3=Black Cat Bone
TTITLE4=I Do It All For You
TTITLE5=Watch Out
TTITLE6=All My Life
TTITLE7=Jump Right Back
TTITLE8=Al's Boogie
TTITLE9=In My Mind
TTITLE10=Moving On
TTITLE11=Lonely Boy
TTITLE12=How Blue Can You Get
TTITLE13=Like It This Way (live)
EXTD=
EXTT0=
EXTT1=
EXTT2=
EXTT3=
EXTT4=
EXTT5=
EXTT6=
EXTT7=
EXTT8=
EXTT9=
EXTT10=
EXTT11=
EXTT12=
EXTT13=
PLAYORDER=
